# xmcd
#
# Track frame offsets: 
#        150
#        30563
#        52227
#        72255
#        92073
#        202999
#        232688
#        248000
#
# Disc length: 4082 seconds
#
# Revision: 1
# Processed by: cddbd v1.5.2PL0 Copyright (c) Steve Scherf et al.
# Submitted via: ExactAudioCopyFreeDBPlugin 1.0
#
DISCID=610ff008
DTITLE=Fleetwood Mac - 1970 [R2003] - Live In Boston Vol.1
DYEAR=1970
DGENRE=
TTITLE0=Black Magic Woman
TTITLE1=Jumping At Shadows
TTITLE2=Like It This Way
TTITLE3=Only You
TTITLE4=Rattlesnake Shake
TTITLE5=I Can't Hold Out
TTITLE6=Got To Move
TTITLE7=The Green Manalishi
EXTD=
EXTT0=
EXTT1=
EXTT2=
EXTT3=
EXTT4=
EXTT5=
EXTT6=
EXTT7=
PLAYORDER=
